# xmcd
# Track frame offsets:
# 150
# 14592
# 28741
# 43428
# 57144
# 69309
# 84542
# 97477
# 111162
# 123484
# 133055
# 145452
# 157954
# 171468
# 184922
# 197548
#
# Disc length: 2788 seconds
# Revision: 1
# Processed by: cddbd v1.5.2PL0 Copyright (c) Steve Scherf et al.
# Submitted via: VisiTrax 2.11.3.279 - For more info visit www.synapsa.com
#
DISCID=f30ae210
DTITLE=Slim Dusty - Song Of Australia
DYEAR=1994
DGENRE=Australian Country
TTITLE0=Born To Be A Rolling Stone
TTITLE1=Along The Road Of Song
TTITLE2=Sweeney
TTITLE3=Down At Charley Gray's
TTITLE4=When They Muster On The Golden Plain
TTITLE5=Once When I Was Mustering
TTITLE6=Man From The Never Never
TTITLE7=Jumpin' The Ruttler
TTITLE8=Song Of Australia
TTITLE9=Back To The Saltbush Plains
TTITLE10=Laughter In The Hills
TTITLE11=Condamine Horse Bell
TTITLE12=The Bushman's Song
TTITLE13=The Pub With No Beer
TTITLE14=Answer To The Pub With No Beer
TTITLE15=Sequel To The Pub With No Beer
EXTD=1994 1998 EMI Music Australia
EXTT0=
EXTT1=
EXTT2=
EXTT3=
EXTT4=
EXTT5=
EXTT6=
EXTT7=
EXTT8=
EXTT9=
EXTT10=
EXTT11=
EXTT12=
EXTT13=
EXTT14=
EXTT15=
PLAYORDER=
